<svg width="32" height="32" viewBox="0 0 32 32" fill="none" xmlns="http://www.w3.org/2000/svg">
<g id="icon">
<path id="Vector" d="M4 16C4 17.5759 4.31039 19.1363 4.91345 20.5922C5.5165 22.0481 6.40042 23.371 7.51472 24.4853C8.62902 25.5996 9.95189 26.4835 11.4078 27.0866C12.8637 27.6896 14.4241 28 16 28C17.5759 28 19.1363 27.6896 20.5922 27.0866C22.0481 26.4835 23.371 25.5996 24.4853 24.4853C25.5996 23.371 26.4835 22.0481 27.0866 20.5922C27.6896 19.1363 28 17.5759 28 16C28 14.4241 27.6896 12.8637 27.0866 11.4078C26.4835 9.95189 25.5996 8.62902 24.4853 7.51472C23.371 6.40042 22.0481 5.5165 20.5922 4.91345C19.1363 4.31039 17.5759 4 16 4C14.4241 4 12.8637 4.31039 11.4078 4.91345C9.95189 5.5165 8.62902 6.40042 7.51472 7.51472C6.40042 8.62902 5.5165 9.95189 4.91345 11.4078C4.31039 12.8637 4 14.4241 4 16Z" stroke="#54ACF8" stroke-width="2" stroke-linecap="round" stroke-linejoin="round"/>
<path id="Vector_2" d="M12 13.3333C12 14.3942 12.4214 15.4116 13.1716 16.1617C13.9217 16.9119 14.9391 17.3333 16 17.3333C17.0609 17.3333 18.0783 16.9119 18.8284 16.1617C19.5786 15.4116 20 14.3942 20 13.3333C20 12.2724 19.5786 11.255 18.8284 10.5049C18.0783 9.75474 17.0609 9.33331 16 9.33331C14.9391 9.33331 13.9217 9.75474 13.1716 10.5049C12.4214 11.255 12 12.2724 12 13.3333Z" stroke="#54ACF8" stroke-width="2" stroke-linecap="round" stroke-linejoin="round"/>
<path id="Vector_3" d="M8.224 25.132C8.55401 24.0336 9.22929 23.0709 10.1497 22.3866C11.07 21.7023 12.1865 21.333 13.3333 21.3333H18.6667C19.815 21.3329 20.9328 21.7032 21.8538 22.389C22.7749 23.0749 23.45 24.0397 23.7787 25.14" stroke="#54ACF8" stroke-width="2" stroke-linecap="round" stroke-linejoin="round"/>
</g>
</svg>
