<svg width="32" height="30" viewBox="0 0 32 30" fill="none" xmlns="http://www.w3.org/2000/svg">
<g id="Frame">
<path id="Vector" d="M13.311 23.305C1.37477 21.64 7.62001 11.636 7.97739 12.472C4.66931 19.165 10.4707 21.099 13.312 21.099V23.305H13.311Z" fill="#B1FC5A" stroke="#464953" stroke-width="0.471"/>
<path id="Vector_2" d="M25.9567 3.23499H10.3488C9.6715 3.23499 9.12245 3.76195 9.12245 4.41199V23.587C9.12245 24.237 9.6715 24.764 10.3488 24.764H25.9567C26.634 24.764 27.183 24.237 27.183 23.587V4.41199C27.183 3.76195 26.634 3.23499 25.9567 3.23499Z" fill="#B1FC5A" stroke="#464953" stroke-width="0.471"/>
<path id="Vector_3" d="M24.5303 5.526H12.5201C11.7076 5.526 11.049 6.15818 11.049 6.938V18.095C11.049 18.8748 11.7076 19.507 12.5201 19.507H24.5303C25.3428 19.507 26.0015 18.8748 26.0015 18.095V6.938C26.0015 6.15818 25.3428 5.526 24.5303 5.526Z" fill="#464953"/>
<path id="Vector_4" d="M24.0958 5.409H12.2107C11.5334 5.409 10.9844 5.93596 10.9844 6.586V17.566C10.9844 18.216 11.5334 18.743 12.2107 18.743H24.0958C24.7731 18.743 25.3222 18.216 25.3222 17.566V6.586C25.3222 5.93596 24.7731 5.409 24.0958 5.409Z" fill="#9252FF" stroke="#464953" stroke-width="0.471"/>
<path id="Vector_5" d="M20.992 21.093H12.2742C11.6321 21.093 11.1115 21.5927 11.1115 22.209C11.1115 22.8254 11.6321 23.325 12.2742 23.325H20.992C21.6341 23.325 22.1547 22.8254 22.1547 22.209C22.1547 21.5927 21.6341 21.093 20.992 21.093Z" fill="#464953"/>
<path id="Vector_6" d="M20.62 20.917H11.9023C11.3953 20.917 10.9844 21.3114 10.9844 21.798C10.9844 22.2846 11.3953 22.679 11.9023 22.679H20.62C21.127 22.679 21.5379 22.2846 21.5379 21.798C21.5379 21.3114 21.127 20.917 20.62 20.917Z" fill="#9252FF" stroke="#464953" stroke-width="0.471"/>
<path id="Vector_7" d="M24.5188 23.478C25.3469 23.478 26.0182 22.8427 26.0182 22.059C26.0182 21.2753 25.3469 20.64 24.5188 20.64C23.6908 20.64 23.0195 21.2753 23.0195 22.059C23.0195 22.8427 23.6908 23.478 24.5188 23.478Z" fill="#464953"/>
<path id="Vector_8" d="M25.4034 21.808C25.4034 22.458 24.846 22.992 24.15 22.992C23.9866 22.9933 23.8246 22.9638 23.6731 22.905C23.5217 22.8462 23.3838 22.7593 23.2673 22.6494C23.1508 22.5394 23.058 22.4086 22.9942 22.2642C22.9304 22.1198 22.8969 21.9648 22.8955 21.808C22.8955 21.157 23.454 20.624 24.15 20.624C24.846 20.624 25.4034 21.157 25.4034 21.808Z" fill="#9252FF" stroke="#464953" stroke-width="0.471"/>
<path id="Vector_9" fill-rule="evenodd" clip-rule="evenodd" d="M7.05113 8.11301C7.05113 7.96581 6.9902 7.82465 6.88176 7.72056C6.77331 7.61648 6.62623 7.55801 6.47287 7.55801H4.98397C4.8306 7.55801 4.68352 7.61648 4.57507 7.72056C4.46663 7.82465 4.4057 7.96581 4.4057 8.11301C4.40543 8.26003 4.34438 8.40094 4.23597 8.5048C4.12755 8.60867 3.98062 8.66701 3.82744 8.66701H3.78576C3.70741 8.66701 3.62983 8.68183 3.55745 8.71064C3.48508 8.73945 3.41933 8.78167 3.36398 8.8349C3.30862 8.88812 3.26474 8.95129 3.23485 9.0208C3.20496 9.09032 3.18965 9.16481 3.18979 9.24001V9.28601C3.18992 9.36129 3.17458 9.43586 3.14462 9.50544C3.11467 9.57502 3.0707 9.63824 3.01523 9.69147C2.95977 9.74471 2.8939 9.78691 2.8214 9.81566C2.7489 9.84441 2.67121 9.85914 2.59277 9.85901H2.52713C2.36907 9.85901 2.21748 9.91927 2.10571 10.0265C1.99394 10.1338 1.93115 10.2793 1.93115 10.431V12.984C1.93115 13.3 2.19788 13.556 2.52713 13.556H2.55839C2.88867 13.556 3.1554 13.813 3.1554 14.129V14.146C3.1554 14.462 3.42213 14.718 3.75138 14.718H3.78264C4.11292 14.718 4.37966 14.974 4.37966 15.29V15.373C4.37966 15.689 4.64639 15.945 4.97563 15.945H5.77478C6.10403 15.945 6.37076 16.202 6.37076 16.518V16.545C6.37076 16.861 6.63853 17.117 6.96777 17.117H7.45643C7.78568 17.117 8.05241 17.373 8.05241 17.689V17.759C8.05241 18.076 8.32018 18.332 8.64943 18.332H9.25687C9.41493 18.332 9.56652 18.2717 9.67828 18.1645C9.79005 18.0572 9.85284 17.9117 9.85284 17.76V17.677C9.85284 17.361 10.1206 17.105 10.4499 17.105H10.9854C11.0638 17.105 11.1413 17.0902 11.2137 17.0614C11.2861 17.0326 11.3518 16.9903 11.4072 16.9371C11.4625 16.8839 11.5064 16.8207 11.5363 16.7512C11.5662 16.6817 11.5815 16.6072 11.5814 16.532V16.512C11.5814 16.195 11.8481 15.939 12.1774 15.939H12.79C12.9481 15.939 13.0997 15.8787 13.2114 15.7715C13.3232 15.6642 13.386 15.5187 13.386 15.367V15.29C13.386 14.974 13.6527 14.718 13.982 14.718H14.1257C14.2722 14.718 14.4127 14.6622 14.5162 14.5628C14.6198 14.4634 14.678 14.3286 14.678 14.188C14.678 14.0474 14.7361 13.9126 14.8397 13.8132C14.9433 13.7138 15.0837 13.658 15.2302 13.658H15.3041C15.4622 13.658 15.6138 13.5977 15.7256 13.4905C15.8373 13.3832 15.9001 13.2377 15.9001 13.086V10.41C15.9001 10.2583 15.8373 10.1128 15.7256 10.0055C15.6138 9.89827 15.4622 9.83801 15.3041 9.83801H15.2323C15.1539 9.83801 15.0763 9.82318 15.0039 9.79437C14.9316 9.76556 14.8658 9.72334 14.8105 9.67012C14.7551 9.6169 14.7112 9.55372 14.6813 9.48421C14.6515 9.4147 14.6361 9.34021 14.6363 9.26501V9.21301C14.6364 9.13781 14.6211 9.06332 14.5912 8.9938C14.5613 8.92429 14.5174 8.86112 14.4621 8.80789C14.4067 8.75467 14.341 8.71245 14.2686 8.68364C14.1962 8.65484 14.1187 8.64001 14.0403 8.64001H13.9497C13.8002 8.64001 13.6568 8.58301 13.5511 8.48155C13.4454 8.38009 13.386 8.24249 13.386 8.09901C13.386 7.79901 13.1338 7.55701 12.8213 7.55701H11.3084C11.2337 7.55701 11.1598 7.57114 11.0909 7.59859C11.0219 7.62604 10.9592 7.66627 10.9065 7.71699C10.8538 7.7677 10.812 7.8279 10.7835 7.89414C10.755 7.96037 10.7404 8.03135 10.7406 8.10301C10.7406 8.17466 10.7258 8.24561 10.6972 8.3118C10.6686 8.37799 10.6267 8.43811 10.5739 8.48873C10.521 8.53936 10.4583 8.57948 10.3893 8.60681C10.3203 8.63414 10.2463 8.64814 10.1717 8.64801H10.0894C9.93129 8.64801 9.7797 8.70827 9.66794 8.81554C9.55617 8.92281 9.49338 9.0683 9.49338 9.22001V9.28501C9.49352 9.36029 9.47817 9.43486 9.44821 9.50444C9.41826 9.57402 9.37429 9.63724 9.31882 9.69047C9.26336 9.74371 9.19749 9.78591 9.12499 9.81466C9.0525 9.84341 8.9748 9.85814 8.89636 9.85801H8.81926C8.74082 9.85814 8.66312 9.84341 8.59063 9.81466C8.51813 9.78591 8.45226 9.74371 8.3968 9.69047C8.34133 9.63724 8.29736 9.57402 8.26741 9.50444C8.23745 9.43486 8.22211 9.36029 8.22224 9.28501V9.24001C8.22238 9.16481 8.20706 9.09032 8.17718 9.0208C8.14729 8.95129 8.10341 8.88812 8.04805 8.8349C7.9927 8.78167 7.92695 8.73945 7.85458 8.71064C7.7822 8.68183 7.70462 8.66701 7.62627 8.66701H7.61585C7.54182 8.66714 7.4685 8.65327 7.40006 8.62621C7.33162 8.59914 7.2694 8.5594 7.21696 8.50926C7.16452 8.45912 7.12289 8.39955 7.09443 8.33396C7.06598 8.26838 7.05126 8.19805 7.05113 8.12701V8.11301Z" fill="#B1FC5A"/>
<g id="Mask group">
<mask id="mask0_16_335" style="mask-type:luminance" maskUnits="userSpaceOnUse" x="0" y="6" width="17" height="14">
<g id="Group">
<path id="Vector_10" d="M0.889236 6.55798H16.518V19.558H0.889236V6.55798Z" fill="white"/>
<path id="Vector_11" fill-rule="evenodd" clip-rule="evenodd" d="M7.05113 8.11301C7.05113 7.96581 6.9902 7.82465 6.88176 7.72056C6.77331 7.61648 6.62623 7.55801 6.47287 7.55801H4.98397C4.8306 7.55801 4.68352 7.61648 4.57507 7.72056C4.46663 7.82465 4.4057 7.96581 4.4057 8.11301C4.40543 8.26003 4.34438 8.40094 4.23597 8.5048C4.12755 8.60867 3.98062 8.66701 3.82744 8.66701H3.78576C3.70741 8.66701 3.62983 8.68183 3.55745 8.71064C3.48508 8.73945 3.41933 8.78167 3.36398 8.8349C3.30862 8.88812 3.26474 8.95129 3.23485 9.0208C3.20496 9.09032 3.18965 9.16481 3.18979 9.24001V9.28601C3.18992 9.36129 3.17458 9.43586 3.14462 9.50544C3.11467 9.57502 3.0707 9.63824 3.01523 9.69147C2.95977 9.74471 2.8939 9.78691 2.8214 9.81566C2.7489 9.84441 2.67121 9.85914 2.59277 9.85901H2.52713C2.36907 9.85901 2.21748 9.91927 2.10571 10.0265C1.99394 10.1338 1.93115 10.2793 1.93115 10.431V12.984C1.93115 13.3 2.19788 13.556 2.52713 13.556H2.55839C2.88867 13.556 3.1554 13.813 3.1554 14.129V14.146C3.1554 14.462 3.42213 14.718 3.75138 14.718H3.78264C4.11292 14.718 4.37966 14.974 4.37966 15.29V15.373C4.37966 15.689 4.64639 15.945 4.97563 15.945H5.77478C6.10403 15.945 6.37076 16.202 6.37076 16.518V16.545C6.37076 16.861 6.63853 17.117 6.96777 17.117H7.45643C7.78568 17.117 8.05241 17.373 8.05241 17.689V17.759C8.05241 18.076 8.32018 18.332 8.64943 18.332H9.25687C9.41493 18.332 9.56652 18.2717 9.67828 18.1645C9.79005 18.0572 9.85284 17.9117 9.85284 17.76V17.677C9.85284 17.361 10.1206 17.105 10.4499 17.105H10.9854C11.0638 17.105 11.1413 17.0902 11.2137 17.0614C11.2861 17.0326 11.3518 16.9903 11.4072 16.9371C11.4625 16.8839 11.5064 16.8207 11.5363 16.7512C11.5662 16.6817 11.5815 16.6072 11.5814 16.532V16.512C11.5814 16.195 11.8481 15.939 12.1774 15.939H12.79C12.9481 15.939 13.0997 15.8787 13.2114 15.7715C13.3232 15.6642 13.386 15.5187 13.386 15.367V15.29C13.386 14.974 13.6527 14.718 13.982 14.718H14.1257C14.2722 14.718 14.4127 14.6622 14.5162 14.5628C14.6198 14.4634 14.678 14.3286 14.678 14.188C14.678 14.0474 14.7361 13.9126 14.8397 13.8132C14.9433 13.7138 15.0837 13.658 15.2302 13.658H15.3041C15.4622 13.658 15.6138 13.5977 15.7256 13.4905C15.8373 13.3832 15.9001 13.2377 15.9001 13.086V10.41C15.9001 10.2583 15.8373 10.1128 15.7256 10.0055C15.6138 9.89827 15.4622 9.83801 15.3041 9.83801H15.2323C15.1539 9.83801 15.0763 9.82318 15.0039 9.79437C14.9316 9.76556 14.8658 9.72334 14.8105 9.67012C14.7551 9.6169 14.7112 9.55372 14.6813 9.48421C14.6515 9.4147 14.6361 9.34021 14.6363 9.26501V9.21301C14.6364 9.13781 14.6211 9.06332 14.5912 8.9938C14.5613 8.92429 14.5174 8.86112 14.4621 8.80789C14.4067 8.75467 14.341 8.71245 14.2686 8.68364C14.1962 8.65484 14.1187 8.64001 14.0403 8.64001H13.9497C13.8002 8.64001 13.6568 8.58301 13.5511 8.48155C13.4454 8.38009 13.386 8.24249 13.386 8.09901C13.386 7.79901 13.1338 7.55701 12.8213 7.55701H11.3084C11.2337 7.55701 11.1598 7.57114 11.0909 7.59859C11.0219 7.62604 10.9592 7.66627 10.9065 7.71699C10.8538 7.7677 10.812 7.8279 10.7835 7.89414C10.755 7.96037 10.7404 8.03135 10.7406 8.10301C10.7406 8.17466 10.7258 8.24561 10.6972 8.3118C10.6686 8.37799 10.6267 8.43811 10.5739 8.48873C10.521 8.53936 10.4583 8.57948 10.3893 8.60681C10.3203 8.63414 10.2463 8.64814 10.1717 8.64801H10.0894C9.93129 8.64801 9.7797 8.70827 9.66794 8.81554C9.55617 8.92281 9.49338 9.0683 9.49338 9.22001V9.28501C9.49352 9.36029 9.47817 9.43486 9.44821 9.50444C9.41826 9.57402 9.37429 9.63724 9.31882 9.69047C9.26336 9.74371 9.19749 9.78591 9.12499 9.81466C9.0525 9.84341 8.9748 9.85814 8.89636 9.85801H8.81926C8.74082 9.85814 8.66312 9.84341 8.59063 9.81466C8.51813 9.78591 8.45226 9.74371 8.3968 9.69047C8.34133 9.63724 8.29736 9.57402 8.26741 9.50444C8.23745 9.43486 8.22211 9.36029 8.22224 9.28501V9.24001C8.22238 9.16481 8.20706 9.09032 8.17718 9.0208C8.14729 8.95129 8.10341 8.88812 8.04805 8.8349C7.9927 8.78167 7.92695 8.73945 7.85458 8.71064C7.7822 8.68183 7.70462 8.66701 7.62627 8.66701H7.61585C7.54182 8.66714 7.4685 8.65327 7.40006 8.62621C7.33162 8.59914 7.2694 8.5594 7.21696 8.50926C7.16452 8.45912 7.12289 8.39955 7.09443 8.33396C7.06598 8.26838 7.05126 8.19805 7.05113 8.12701V8.11301Z" fill="#464953"/>
</g>
</mask>
<g mask="url(#mask0_16_335)">
<path id="Vector_12" d="M4.98189 8.02901H6.47391V7.08801H4.98397V8.02901H4.98189ZM3.78577 9.13901H3.8264V8.19701H3.78577V9.13801V9.13901ZM3.67949 9.28601V9.24001H2.69905V9.28601H3.67949ZM2.52713 10.33H2.59277V9.39001H2.52713V10.33ZM2.4219 12.985V10.43H1.44041V12.983H2.4219V12.985ZM2.55943 13.087H2.52817V14.027H2.55943V13.087ZM3.64615 14.147V14.13H2.66467V14.147H3.64615ZM3.78368 14.248H3.75243V15.19H3.78368V14.248ZM4.8704 15.374V15.292H3.88892V15.374H4.8704ZM5.77479 15.476H4.97564V16.417H5.77479V15.476ZM6.8615 16.546V16.519H5.88002V16.546H6.85942H6.8615ZM7.4554 16.647H6.96778V17.589H7.45644L7.4554 16.647ZM8.54316 17.761V17.691H7.56271V17.761H8.54211H8.54316ZM9.25687 17.863H8.64943V18.803H9.25687V17.863ZM9.36315 17.678V17.761H10.3425V17.678H9.36315ZM10.9854 16.635H10.4499V17.576H10.9854V16.635ZM11.0906 16.512V16.533H12.0721V16.513H11.0906V16.512ZM12.789 15.469H12.1774V16.411H12.79V15.469H12.789ZM12.8952 15.291V15.368H13.8757V15.291H12.8963H12.8952ZM14.1257 14.248H13.982V15.19H14.1257V14.248ZM15.3042 13.188H15.2312V14.13H15.3042V13.188ZM15.4104 10.412V13.087H16.3909V10.41H15.4104V10.412ZM15.2333 10.31H15.3042V9.36901H15.2323V10.31H15.2333ZM14.1455 9.21501V9.26701H15.127V9.21501H14.1455ZM13.9497 9.11301H14.0403V8.17001H13.9497V9.11001V9.11301ZM11.3084 8.02901H12.8223V7.08801H11.3084V8.02901ZM10.0894 9.11901H10.1727V8.17901H10.0894V9.11901ZM9.98517 9.28601V9.22101H9.00368V9.28601H9.98517ZM8.81822 10.33H8.89532V9.39001H8.81822V10.33ZM7.73255 9.24001V9.28701H8.71195V9.24001H7.73255ZM7.61481 9.14001H7.62627V8.19801H7.61585V9.13901L7.61481 9.14001ZM6.56039 8.11201V8.12501H7.54188V8.11201H6.56039ZM7.61481 8.19601C7.59547 8.19601 7.57691 8.18864 7.56324 8.17551C7.54956 8.16238 7.54188 8.14458 7.54188 8.12601H6.56039C6.56039 8.68401 7.03238 9.13701 7.61481 9.13701V8.19601ZM8.71403 9.24001C8.71403 8.66401 8.22746 8.19701 7.62731 8.19701V9.13801C7.68566 9.13801 7.73255 9.18401 7.73255 9.24001H8.71195H8.71403ZM8.82031 9.38801C8.79212 9.38801 8.76509 9.37727 8.74516 9.35814C8.72523 9.33901 8.71403 9.31307 8.71403 9.28601H7.73359C7.73359 9.86201 8.22016 10.329 8.82031 10.329V9.38901V9.38801ZM9.00368 9.28601C9.00368 9.31307 8.99249 9.33901 8.97256 9.35814C8.95263 9.37727 8.92559 9.38801 8.89741 9.38801V10.329C9.49755 10.329 9.98517 9.86201 9.98517 9.28601H9.00368ZM10.0894 8.18001C9.48922 8.18001 9.00264 8.64601 9.00264 9.22201H9.98308C9.98308 9.16601 10.031 9.12101 10.0894 9.12101V8.18001ZM10.2488 8.10501C10.2488 8.1249 10.2405 8.14398 10.2259 8.15805C10.2112 8.17211 10.1914 8.18001 10.1706 8.18001V9.12001C10.7551 9.12001 11.2292 8.66601 11.2292 8.10501H10.2488ZM11.3074 7.08901C10.7228 7.08901 10.2488 7.54401 10.2488 8.10501H11.2292C11.2292 8.06301 11.2646 8.03001 11.3074 8.03001V7.08901ZM13.8757 8.10001C13.8757 7.54001 13.4037 7.08801 12.8213 7.08801V8.02901C12.8309 8.02888 12.8405 8.03059 12.8495 8.03405C12.8585 8.03751 12.8666 8.04265 12.8735 8.04916C12.8804 8.05567 12.8859 8.06343 12.8896 8.07199C12.8933 8.08055 12.8952 8.08974 12.8952 8.09901H13.8757V8.10001ZM13.9497 8.17001C13.9303 8.17001 13.9118 8.16264 13.8981 8.14951C13.8844 8.13638 13.8767 8.11858 13.8767 8.10001H12.8952C12.8952 8.65901 13.3672 9.11301 13.9497 9.11301V8.17001ZM15.127 9.21401C15.127 8.63801 14.6404 8.17001 14.0403 8.17001V9.11101C14.0987 9.11101 14.1455 9.15701 14.1455 9.21401H15.127ZM15.2323 9.36801C15.2043 9.36775 15.1775 9.35689 15.1578 9.33779C15.1381 9.31869 15.127 9.29289 15.127 9.26601H14.1455C14.1455 9.84201 14.6321 10.309 15.2323 10.309V9.36801ZM16.3909 10.411C16.3909 9.83501 15.9043 9.36801 15.3042 9.36801V10.309C15.3625 10.309 15.4104 10.356 15.4104 10.412L16.3909 10.411ZM15.3042 14.129C15.9043 14.129 16.3909 13.663 16.3909 13.087H15.4104C15.4102 13.1139 15.3988 13.1386 15.3789 13.1575C15.359 13.1764 15.3322 13.188 15.3042 13.188V14.129ZM15.1687 14.188C15.1687 14.1721 15.1753 14.1568 15.187 14.1456C15.1987 14.1343 15.2146 14.128 15.2312 14.128V13.188C15.0943 13.1879 14.9587 13.2137 14.8322 13.2638C14.7056 13.314 14.5907 13.3877 14.4938 13.4806C14.3969 13.5734 14.3201 13.6837 14.2677 13.8051C14.2152 13.9265 14.1883 14.0566 14.1883 14.188H15.1687ZM14.1268 15.188C14.4031 15.188 14.6681 15.0827 14.8635 14.8951C15.0589 14.7076 15.1687 14.4532 15.1687 14.188H14.1883C14.1883 14.2039 14.1817 14.2192 14.1699 14.2304C14.1582 14.2417 14.1423 14.248 14.1257 14.248L14.1268 15.188ZM13.8767 15.29C13.8766 15.2767 13.8792 15.2635 13.8845 15.2512C13.8897 15.2389 13.8974 15.2277 13.9072 15.2183C13.917 15.2089 13.9287 15.2015 13.9415 15.1964C13.9544 15.1914 13.9681 15.1899 13.982 15.19V14.247C13.3818 14.247 12.8952 14.714 12.8952 15.29H13.8757H13.8767ZM12.79 16.411C13.3902 16.411 13.8757 15.943 13.8757 15.367H12.8963C12.896 15.3939 12.8847 15.4196 12.8648 15.4385C12.8449 15.4574 12.818 15.469 12.79 15.469V16.411ZM12.0711 16.511C12.0711 16.455 12.119 16.411 12.1774 16.411V15.469C11.5772 15.469 11.0906 15.936 11.0906 16.512L12.0711 16.511ZM10.9854 17.576C11.5856 17.576 12.0721 17.108 12.0721 16.532H11.0906C11.0906 16.5589 11.0796 16.5847 11.0599 16.6038C11.0402 16.6229 11.0134 16.6348 10.9854 16.635V17.576ZM10.3436 17.677C10.3436 17.621 10.3905 17.576 10.4499 17.576V16.635C9.84972 16.635 9.36315 17.102 9.36315 17.678H10.3425L10.3436 17.677ZM9.25583 18.803C9.85597 18.803 10.3425 18.337 10.3425 17.761L9.3621 17.76C9.3621 17.7871 9.35091 17.813 9.33098 17.8321C9.31105 17.8513 9.28401 17.862 9.25583 17.862V18.803ZM7.56271 17.761C7.56271 18.337 8.04929 18.803 8.64943 18.803V17.862C8.62125 17.862 8.59421 17.8513 8.57428 17.8321C8.55435 17.813 8.54316 17.7881 8.54316 17.761H7.56271ZM7.45644 17.588C7.51479 17.588 7.56271 17.633 7.56271 17.689H8.54211C8.54211 17.113 8.05658 16.646 7.45644 16.646V17.588ZM5.88002 16.546C5.88002 17.122 6.36659 17.588 6.96674 17.588V16.646C6.93873 16.646 6.91186 16.6354 6.89196 16.6165C6.87205 16.5976 6.86074 16.5719 6.86046 16.545L5.88002 16.546ZM5.77374 16.416C5.83209 16.416 5.88002 16.463 5.88002 16.519L6.85942 16.518C6.85942 15.942 6.37389 15.475 5.77374 15.475V16.416ZM3.88788 15.373C3.88788 15.949 4.37445 16.416 4.97459 16.416V15.475C4.94659 15.4748 4.91982 15.4639 4.90012 15.4448C4.88041 15.4257 4.86936 15.3999 4.86936 15.373H3.88788ZM3.78264 15.189C3.7965 15.1889 3.81025 15.1914 3.82308 15.1964C3.83591 15.2015 3.84756 15.2089 3.85736 15.2183C3.86716 15.2277 3.87491 15.2389 3.88015 15.2512C3.88539 15.2635 3.88801 15.2767 3.88788 15.29H4.86936C4.86936 14.715 4.38279 14.248 3.78264 14.248V15.189ZM2.66362 14.146C2.66362 14.722 3.1502 15.189 3.75034 15.189V14.248C3.72234 14.2477 3.69557 14.2369 3.67587 14.2178C3.65616 14.1987 3.64511 14.1729 3.64511 14.146H2.66362ZM2.55839 14.026C2.61674 14.026 2.66362 14.072 2.66362 14.129H3.64511C3.64511 13.553 3.15853 13.086 2.55839 13.086V14.026ZM1.44041 12.985C1.44041 13.561 1.92699 14.028 2.52713 14.028L2.52817 13.087C2.50017 13.0867 2.47236 13.0759 2.45266 13.0568C2.43295 13.0377 2.4219 13.0119 2.4219 12.985H1.44041ZM2.52713 9.38901C1.92699 9.38901 1.44041 9.85601 1.44041 10.432H2.4219C2.4219 10.376 2.46879 10.33 2.52713 10.33V9.39001V9.38901ZM2.69905 9.28601C2.69905 9.29941 2.6963 9.31367 2.69096 9.32605C2.68562 9.33842 2.67779 9.34967 2.66792 9.35914C2.65805 9.36861 2.64634 9.37612 2.63344 9.38125C2.62055 9.38637 2.60673 9.38901 2.59277 9.38901V10.33C3.19292 10.33 3.67949 9.86201 3.67949 9.28601H2.69905ZM3.78577 8.19701C3.18562 8.19701 2.69905 8.66501 2.69905 9.24101H3.67949C3.67949 9.18501 3.72742 9.13901 3.78577 9.13901V8.19801V8.19701ZM3.91392 8.11401C3.91392 8.13629 3.9047 8.15766 3.88829 8.17341C3.87188 8.18916 3.84961 8.19801 3.8264 8.19801V9.13901C4.41613 9.13901 4.89437 8.68001 4.89437 8.11401H3.91392ZM6.47287 8.03001C6.52184 8.03001 6.56039 8.06801 6.56039 8.11401H7.54188C7.54188 7.54801 7.06259 7.08901 6.47287 7.08901V8.03001ZM4.98293 7.08901C4.39216 7.08901 3.91392 7.54801 3.91392 8.11401H4.89437C4.89437 8.06801 4.93396 8.02901 4.98189 8.02901L4.98293 7.08901Z" fill="#464953"/>
</g>
</g>
<path id="Vector_13" d="M30.2473 9.686C31.533 12.777 28.8178 16.547 27.4279 17.386V13.865C30.738 5.972 20.6867 7.133 16.6815 7.635C20.9451 6.359 28.2051 4.773 30.2473 9.686Z" fill="#B1FC5A"/>
<path id="Vector_14" d="M27.4279 17.385H27.183V17.811L27.5581 17.584L27.4279 17.385ZM16.6815 7.63602L16.6086 7.41102C16.5492 7.42782 16.4987 7.46558 16.4672 7.5167C16.4356 7.56783 16.4254 7.62851 16.4387 7.68655C16.4519 7.7446 16.4875 7.79568 16.5383 7.82954C16.5892 7.86339 16.6515 7.8775 16.7128 7.86902L16.6815 7.63602ZM27.4279 13.865L27.2007 13.777L27.183 13.819V13.865H27.4279ZM27.5581 17.584C28.3062 17.132 29.3596 15.938 30.0629 14.479C30.7693 13.017 31.1527 11.229 30.4755 9.59902L30.0202 9.77302C30.6276 11.234 30.2963 12.877 29.618 14.282C28.9387 15.69 27.9384 16.799 27.2976 17.186L27.5581 17.584ZM30.4755 9.59902C29.4013 7.01602 26.9517 6.16302 24.3032 6.10402C21.6567 6.04502 18.7445 6.77102 16.6086 7.41102L16.7545 7.86102C18.8821 7.22302 21.7307 6.51802 24.2917 6.57502C26.8486 6.63202 29.0512 7.44302 30.0202 9.77302L30.4755 9.59902ZM16.7128 7.86902C18.7247 7.61602 22.1912 7.20902 24.7366 7.82902C26.0067 8.13902 26.9976 8.69202 27.4914 9.59902C27.9832 10.506 28.0155 11.834 27.2007 13.777L27.655 13.952C28.4958 11.949 28.5125 10.462 27.9259 9.38202C27.3393 8.30302 26.189 7.69802 24.8585 7.37402C22.2047 6.72702 18.6414 7.15202 16.6503 7.40202L16.7128 7.86902ZM27.183 13.865V17.385H27.6727V13.865H27.183Z" fill="#464953"/>
</g>
</svg>
