<svg width="32" height="30" viewBox="0 0 32 30" fill="none" xmlns="http://www.w3.org/2000/svg">
<g id="Frame">
<path id="Vector" fill-rule="evenodd" clip-rule="evenodd" d="M18.5009 21.323C23.8355 19.12 27.0446 14.751 25.6693 11.564C24.7857 9.52003 22.2299 8.45903 19.1021 8.54403C23.6104 8.12603 27.2342 9.27203 28.0459 11.692C29.1357 14.94 24.7597 19.267 18.2414 21.427L18.5009 21.323ZM12.9245 22.563C14.7372 22.3861 16.5218 22.0048 18.2414 21.427C16.4181 22.147 14.5906 22.516 12.9245 22.563ZM12.9245 22.563C8.41096 22.983 4.78301 21.838 3.97032 19.415C2.88151 16.169 7.25235 11.844 13.7664 9.68303L13.5164 9.78403C8.1807 11.988 4.9716 16.357 6.34797 19.543C7.23256 21.589 9.79254 22.65 12.9245 22.563ZM13.7664 9.68303C15.596 8.96003 17.4308 8.58803 19.101 8.54303C17.2822 8.71985 15.4916 9.10251 13.7664 9.68303Z" fill="#9252FF"/>
<path id="Vector_2" d="M25.4567 11.651C26.1027 13.148 25.6859 14.954 24.4148 16.685C23.1457 18.412 21.0463 20.031 18.4123 21.119L18.5894 21.527C21.2911 20.412 23.4635 18.745 24.7888 16.94C26.1121 15.138 26.6122 13.167 25.8808 11.477L25.4567 11.651ZM19.1052 8.76602C22.1945 8.68302 24.6273 9.73203 25.4567 11.651L25.8797 11.477C24.943 9.30803 22.2622 8.23703 19.0969 8.32103L19.1052 8.76602ZM19.1208 8.76503C21.3526 8.55803 23.35 8.74002 24.8805 9.26302C26.4132 9.78702 27.4499 10.641 27.826 11.763L28.2636 11.623C27.8281 10.323 26.6466 9.39402 25.0379 8.84402C23.426 8.29402 21.3578 8.11202 19.0802 8.32202L19.1208 8.76503ZM27.826 11.763C28.3314 13.268 27.5833 15.077 25.8318 16.813C24.0897 18.541 21.4005 20.146 18.1675 21.217L18.3133 21.637C21.5995 20.549 24.3564 18.91 26.16 17.122C27.9542 15.343 28.8481 13.365 28.2647 11.622L27.8271 11.762L27.826 11.763ZM18.4123 21.119C18.3269 21.154 18.2404 21.189 18.155 21.222L18.3258 21.633C18.4134 21.599 18.5019 21.563 18.5894 21.527L18.4113 21.118L18.4123 21.119ZM17.9341 21.294C16.2014 21.849 14.4958 22.194 12.9037 22.342L12.9433 22.785C14.6905 22.6141 16.4121 22.2552 18.0758 21.715L17.9341 21.294ZM18.1675 21.217L17.9341 21.294L18.0758 21.715L18.3133 21.638L18.1675 21.218V21.217ZM18.155 21.222C16.3556 21.932 14.5551 22.296 12.9193 22.342L12.9287 22.786C14.6239 22.739 16.4796 22.362 18.3258 21.633L18.155 21.222ZM12.9037 22.342C10.6698 22.55 8.66936 22.368 7.1367 21.845C5.603 21.322 4.56525 20.468 4.18807 19.345L3.75151 19.485C4.18807 20.785 5.36961 21.715 6.98041 22.265C8.5933 22.815 10.6646 22.997 12.9433 22.785L12.9037 22.342ZM4.18807 19.345C3.68379 17.841 4.43084 16.033 6.18022 14.297C7.92022 12.57 10.6084 10.965 13.8383 9.89302L13.6924 9.47302C10.4094 10.563 7.65453 12.2 5.85201 13.988C4.05992 15.766 3.16595 17.744 3.75047 19.486L4.18807 19.346V19.345ZM13.6039 9.98903C13.6862 9.95503 13.7685 9.92102 13.8508 9.88902L13.6799 9.47703L13.4267 9.58002L13.6039 9.98903ZM6.56052 19.456C5.91349 17.959 6.3313 16.153 7.60139 14.423C8.8694 12.696 10.9699 11.077 13.6039 9.98903L13.4267 9.58002C10.7261 10.695 8.55266 12.362 7.2263 14.167C5.90307 15.969 5.40503 17.94 6.13437 19.63L6.56052 19.456ZM12.9193 22.342C9.82484 22.428 7.39092 21.377 6.56052 19.456L6.13437 19.63C7.0721 21.801 9.75816 22.873 12.9277 22.786L12.9193 22.342ZM13.8508 9.88902C15.6564 9.17502 17.4631 8.80902 19.1052 8.76602L19.0969 8.32103C17.3964 8.36703 15.5325 8.74503 13.6799 9.47703L13.8508 9.88902ZM14.0811 9.81403C15.7146 9.28347 17.4051 8.93125 19.1208 8.76402L19.0802 8.32202C17.4496 8.47202 15.7065 8.82503 13.9394 9.39203L14.0811 9.81403ZM13.8383 9.89403L14.0811 9.81403L13.9394 9.39203L13.6924 9.47302L13.8383 9.89302V9.89403Z" fill="#464953"/>
<path id="Vector_3" d="M25.414 20.914C25.3348 20.522 24.7503 20.522 24.6711 20.914L24.2741 22.874L22.257 23.264C21.8527 23.343 21.8527 23.898 22.257 23.977L24.2741 24.367L24.6711 26.327C24.7503 26.719 25.3348 26.719 25.414 26.327L25.812 24.367L27.8281 23.977C28.2334 23.898 28.2334 23.343 27.8281 23.264L25.812 22.874L25.414 20.914ZM6.26877 3.69598C6.18959 3.30398 5.60507 3.30398 5.52589 3.69598L5.22581 5.17598L3.69941 5.47198C3.29514 5.54998 3.29514 6.10598 3.69941 6.18398L5.22581 6.47998L5.52589 7.95998C5.60507 8.35198 6.18959 8.35198 6.26877 7.95998L6.56884 6.47998L8.09525 6.18398C8.50056 6.10598 8.50056 5.54998 8.09525 5.47198L6.56884 5.17598L6.26877 3.69598ZM9.03506 7.21998C8.9715 6.90698 8.50368 6.90698 8.44117 7.21998L8.31093 7.86198L7.64931 7.98998C7.32632 8.05298 7.32632 8.49698 7.64931 8.55998L8.31093 8.68698L8.44117 9.32898C8.50368 9.64198 8.9715 9.64198 9.03506 9.32898L9.1653 8.68698L9.82587 8.55898C10.1489 8.49698 10.1489 8.05298 9.82587 7.98998L9.1653 7.86198L9.03506 7.21998Z" fill="#B1FC5A" stroke="#464953" stroke-width="0.443"/>
<path id="Vector_4" fill-rule="evenodd" clip-rule="evenodd" d="M21.4714 7.46702C21.647 7.46702 21.8153 7.40015 21.9396 7.28109C22.0638 7.16203 22.1338 7.00052 22.134 6.83202V6.11002C22.134 5.74002 21.8215 5.44202 21.437 5.44202H14.4322C14.3222 5.44202 14.2167 5.48395 14.139 5.55859C14.0612 5.63323 14.0175 5.73446 14.0175 5.84002V7.20702C14.0177 7.24566 14.0098 7.28395 13.9945 7.31968C13.9791 7.35541 13.9566 7.38787 13.9281 7.4152C13.8996 7.44253 13.8658 7.46418 13.8286 7.47891C13.7914 7.49363 13.7515 7.50115 13.7112 7.50102C13.6302 7.50102 13.5526 7.53189 13.4953 7.58683C13.4381 7.64178 13.4059 7.71631 13.4059 7.79402V8.78402C13.4059 8.85748 13.3755 8.92794 13.3214 8.97989C13.2673 9.03183 13.1938 9.06102 13.1173 9.06102C13.0408 9.06102 12.9674 9.0902 12.9132 9.14215C12.8591 9.1941 12.8287 9.26455 12.8287 9.33802V10.363C12.8287 10.4667 12.7858 10.5662 12.7094 10.6395C12.633 10.7128 12.5294 10.754 12.4213 10.754C12.3677 10.7539 12.3146 10.7639 12.2651 10.7835C12.2155 10.8031 12.1705 10.8319 12.1326 10.8682C12.0946 10.9045 12.0645 10.9477 12.044 10.9952C12.0234 11.0427 12.0129 11.0936 12.0129 11.145V12.039C12.0129 12.0797 12.0045 12.12 11.9883 12.1576C11.9721 12.1953 11.9483 12.2294 11.9183 12.2582C11.8883 12.287 11.8527 12.3098 11.8135 12.3254C11.7743 12.341 11.7323 12.349 11.6899 12.349C11.6046 12.3493 11.5228 12.3819 11.4625 12.4398C11.4022 12.4977 11.3682 12.5761 11.3679 12.658V13.303C11.3679 13.4197 11.3196 13.5316 11.2337 13.6141C11.1477 13.6967 11.0311 13.743 10.9095 13.743C10.7879 13.743 10.6713 13.7894 10.5853 13.8719C10.4993 13.9544 10.451 14.0663 10.451 14.183V14.968C10.451 15.0502 10.417 15.1291 10.3564 15.1872C10.2959 15.2454 10.2137 15.278 10.128 15.278C10.0424 15.278 9.96023 15.3107 9.89966 15.3688C9.83908 15.427 9.80505 15.5058 9.80505 15.588V15.933C9.80505 16.295 10.1114 16.589 10.4896 16.589H12.388C12.7433 16.589 13.0319 16.866 13.0319 17.208V17.452C13.0316 17.5513 12.9903 17.6464 12.9171 17.7165C12.8438 17.7866 12.7446 17.826 12.6411 17.826C12.5377 17.8263 12.4386 17.8659 12.3655 17.9362C12.2925 18.0065 12.2515 18.1017 12.2515 18.201V19.075C12.2515 19.1312 12.2282 19.1852 12.1868 19.2249C12.1454 19.2647 12.0892 19.287 12.0306 19.287C11.972 19.287 11.9158 19.3094 11.8744 19.3491C11.833 19.3889 11.8097 19.4428 11.8097 19.499V20.789C11.8097 20.879 11.7336 20.952 11.6399 20.952C11.5948 20.952 11.5516 20.9692 11.5198 20.9998C11.4879 21.0303 11.47 21.0718 11.47 21.115V22.413C11.4702 22.4472 11.4633 22.4812 11.4497 22.5128C11.4362 22.5445 11.4162 22.5733 11.3911 22.5975C11.3659 22.6218 11.336 22.641 11.303 22.6541C11.2701 22.6673 11.2348 22.674 11.1991 22.674C11.1635 22.6739 11.1281 22.6805 11.0951 22.6935C11.0622 22.7065 11.0322 22.7257 11.0069 22.7498C10.9816 22.774 10.9616 22.8027 10.9479 22.8343C10.9342 22.8659 10.9272 22.8998 10.9272 22.934V23.674C10.9272 23.704 10.921 23.7338 10.909 23.7615C10.897 23.7892 10.8794 23.8144 10.8573 23.8356C10.8351 23.8568 10.8088 23.8736 10.7798 23.8849C10.7509 23.8963 10.7199 23.9021 10.6886 23.902C10.6573 23.902 10.6263 23.9079 10.5974 23.9195C10.5686 23.931 10.5423 23.9479 10.5203 23.9692C10.4982 23.9904 10.4807 24.0157 10.4688 24.0435C10.4569 24.0712 10.4509 24.101 10.451 24.131V24.853C10.451 24.988 10.3364 25.098 10.1968 25.098C10.1633 25.0979 10.1302 25.1041 10.0992 25.1163C10.0682 25.1285 10.0401 25.1465 10.0164 25.1691C9.99266 25.1918 9.97384 25.2187 9.961 25.2484C9.94815 25.2781 9.94154 25.3099 9.94155 25.342V25.74C9.94155 26.082 10.2312 26.36 10.5875 26.36H10.8866C10.9321 26.36 10.9771 26.3514 11.0192 26.3347C11.0612 26.3179 11.0994 26.2934 11.1315 26.2624C11.1637 26.2315 11.1891 26.1948 11.2064 26.1544C11.2238 26.114 11.2326 26.0707 11.2325 26.027C11.2325 25.844 11.3877 25.695 11.5784 25.695H11.7586C11.8982 25.695 12.032 25.6418 12.1307 25.5471C12.2294 25.4524 12.2848 25.324 12.2848 25.19V25.04C12.2848 24.815 12.4755 24.633 12.7099 24.633H12.7714C12.8676 24.6328 12.9599 24.5959 13.0278 24.5304C13.0958 24.465 13.134 24.3764 13.134 24.284C13.134 24.092 13.2965 23.936 13.4976 23.936H13.6268C13.7578 23.935 13.883 23.8842 13.9752 23.7948C14.0673 23.7055 14.1189 23.5847 14.1186 23.459C14.1197 23.3304 14.1734 23.2074 14.2681 23.1165C14.3628 23.0256 14.491 22.9741 14.625 22.973C14.9063 22.973 15.1376 22.754 15.1376 22.484V22.234C15.1376 21.904 15.4158 21.638 15.7586 21.638C15.9229 21.6378 16.0804 21.575 16.1966 21.4635C16.3128 21.3519 16.3782 21.2007 16.3785 21.043V20.966C16.3785 20.595 16.6921 20.294 17.0787 20.294H17.1162C17.2131 20.2941 17.3092 20.2759 17.3988 20.2404C17.4884 20.2049 17.5699 20.1528 17.6385 20.087C17.7071 20.0212 17.7615 19.9432 17.7986 19.8572C17.8358 19.7712 17.8549 19.6791 17.8549 19.586V19.511C17.8549 19.128 18.1841 18.819 18.5822 18.819C18.7708 18.8195 18.952 18.7483 19.086 18.6208C19.2199 18.4933 19.2958 18.3201 19.2969 18.139C19.2969 17.765 19.6137 17.461 20.0033 17.461H20.0481C20.232 17.461 20.4083 17.391 20.5384 17.2663C20.6685 17.1416 20.7418 16.9725 20.742 16.796C20.742 16.428 21.0515 16.13 21.4349 16.13H21.4943C21.9111 16.13 22.2476 15.806 22.2476 15.407V14.414C22.2476 14.094 22.5185 13.835 22.8519 13.835C23.012 13.8348 23.1655 13.7735 23.2786 13.6648C23.3917 13.556 23.4552 13.4087 23.4552 13.255V13.228C23.4549 13.0672 23.3882 12.9131 23.2696 12.7994C23.151 12.6858 22.9903 12.622 22.8228 12.622H19.3803C19.2987 12.6221 19.2179 12.6068 19.1425 12.5769C19.0671 12.547 18.9985 12.5031 18.9409 12.4477C18.8832 12.3924 18.8374 12.3266 18.8063 12.2543C18.7751 12.1819 18.7591 12.1043 18.7593 12.026V11.598C18.7593 11.385 18.9395 11.212 19.1625 11.212C19.2692 11.212 19.3715 11.1713 19.4469 11.099C19.5223 11.0266 19.5647 10.9284 19.5647 10.826V9.92402C19.5647 9.59402 19.8429 9.32602 20.1867 9.32602C20.5305 9.32602 20.8098 9.05902 20.8098 8.72902V8.10302C20.8098 7.75202 21.1057 7.46702 21.4714 7.46702Z" fill="#B1FC5A"/>
<path id="Vector_5" d="M21.9027 6.10997V6.83197H22.3643V6.10997H21.9027ZM20.741 5.66297H21.437V5.21997H20.741V5.66297ZM14.4322 5.66297H20.741V5.21997H14.4322V5.66297ZM14.2478 6.23897V5.83997H13.7862V6.23897H14.2478ZM14.2478 7.20697V6.23897H13.7862V7.20797H14.2478V7.20697ZM13.6362 8.78397V7.79397H13.1746V8.78397H13.6362ZM13.0589 10.364V9.33697H12.5974V10.362H13.0589V10.364ZM12.2442 12.039V11.145H11.7826V12.039H12.2442ZM11.5982 13.303V12.658H11.1376V13.303H11.5992H11.5982ZM10.6813 14.968V14.183H10.2208V14.968H10.6823H10.6813ZM9.57477 15.588V15.933H10.0363V15.587L9.57477 15.588ZM10.4896 16.811H12.3879V16.367H10.4885L10.4896 16.811ZM13.2632 17.451V17.208H12.8016V17.452L13.2632 17.451ZM12.4817 19.075V18.201H12.0201V19.075H12.4817ZM12.0399 20.789V19.5H11.5784V20.79H12.041L12.0399 20.789ZM11.7013 22.413V21.115H11.2397V22.413H11.7013ZM11.1574 23.674V22.934H10.6969V23.674H11.1574ZM10.6823 24.854V24.131H10.2208V24.853L10.6823 24.854ZM10.1718 25.74V25.342H9.71126V25.74H10.1718ZM10.8865 26.138H10.5875V26.581H10.8865V26.138ZM11.7586 25.474H11.5784V25.917H11.7586V25.474ZM12.0545 25.04V25.19H12.5161V25.04H12.0545ZM12.7714 24.411H12.7089V24.855H12.7714V24.411ZM13.6257 23.714H13.4976V24.157H13.6268V23.714H13.6257ZM14.9073 22.234V22.484H15.3689V22.234H14.9073ZM16.1472 20.966V21.043H16.6098V20.966H16.1482H16.1472ZM17.1162 20.072H17.0797V20.515H17.1162V20.072ZM17.6236 19.511V19.586H18.0851V19.511H17.6236ZM20.0481 17.24H20.0033V17.683H20.0481V17.24ZM21.4943 15.909H21.4349V16.352H21.4943V15.908V15.909ZM22.0163 14.414V15.407H22.4789V14.414H22.0163ZM23.2249 13.228V13.256H23.6854V13.228H23.2249ZM20.0012 12.844H22.8227V12.4H20.0012V12.844ZM19.3802 12.844H20.0012V12.4H19.3802V12.844ZM18.529 11.599V12.026H18.9906V11.598H18.529V11.599ZM19.3344 9.92397V10.826H19.796V9.92397H19.3344ZM20.5784 8.10297V8.72897H21.04V8.10297H20.5784ZM21.04 8.10297C21.04 7.87397 21.2328 7.68897 21.4714 7.68897V7.24597C21.2345 7.24597 21.0074 7.33626 20.84 7.49698C20.6725 7.6577 20.5784 7.87568 20.5784 8.10297H21.04ZM20.1867 9.54797C20.2988 9.5481 20.4099 9.52702 20.5136 9.48592C20.6172 9.44482 20.7114 9.38451 20.7908 9.30845C20.8701 9.23238 20.9331 9.14205 20.976 9.04262C21.0189 8.94319 21.04 8.83661 21.04 8.72897H20.5784C20.5784 8.82869 20.5372 8.92433 20.4637 8.99484C20.3902 9.06536 20.2906 9.10497 20.1867 9.10497V9.54797ZM19.796 9.92397C19.796 9.71597 19.971 9.54797 20.1867 9.54797V9.10497C19.9604 9.10497 19.7433 9.19126 19.5833 9.34485C19.4233 9.49844 19.3344 9.70676 19.3344 9.92397H19.796ZM19.1625 11.434C19.3305 11.434 19.4916 11.3699 19.6104 11.2559C19.7292 11.1419 19.796 10.9872 19.796 10.826H19.3344C19.3344 10.8696 19.3154 10.9114 19.2834 10.9423C19.2514 10.9732 19.2079 10.9907 19.1625 10.991V11.434ZM18.9906 11.599C18.9906 11.508 19.0677 11.434 19.1625 11.434V10.991C18.9947 10.991 18.8337 11.0549 18.7149 11.1687C18.5961 11.2825 18.5293 11.4369 18.529 11.598H18.9906V11.599ZM19.3802 12.4C19.2769 12.4 19.1778 12.3606 19.1047 12.2904C19.0316 12.2203 18.9906 12.1252 18.9906 12.026H18.529C18.529 12.478 18.9103 12.844 19.3802 12.844V12.4ZM20.2315 12.622C20.2315 12.5928 20.2255 12.5639 20.2139 12.537C20.2023 12.5101 20.1852 12.4856 20.1637 12.465C20.1423 12.4444 20.1168 12.428 20.0887 12.4169C20.0606 12.4057 20.0316 12.4 20.0012 12.4V12.844C19.9401 12.8437 19.8804 12.8202 19.8373 12.7786C19.7941 12.737 19.7699 12.6807 19.7699 12.622H20.2315ZM20.0012 12.4C20.1283 12.4 20.2315 12.5 20.2315 12.622H19.7699C19.7699 12.744 19.8741 12.844 20.0012 12.844V12.4ZM23.6854 13.228C23.6854 13.0084 23.5945 12.7978 23.4328 12.6425C23.271 12.4872 23.0515 12.4 22.8227 12.4V12.844C23.0447 12.844 23.2249 13.016 23.2249 13.228H23.6854ZM22.8519 14.057C22.9615 14.057 23.0699 14.0362 23.1711 13.996C23.2723 13.9557 23.3643 13.8967 23.4417 13.8223C23.5191 13.7479 23.5805 13.6596 23.6223 13.5624C23.6641 13.4653 23.6856 13.3611 23.6854 13.256H23.2249C23.2249 13.453 23.0572 13.613 22.8509 13.613L22.8519 14.057ZM22.4789 14.414C22.4789 14.217 22.6466 14.057 22.8519 14.057L22.8509 13.613C22.7413 13.613 22.6328 13.6337 22.5316 13.674C22.4304 13.7142 22.3385 13.7732 22.2611 13.8476C22.1837 13.922 22.1223 14.0103 22.0805 14.1075C22.0387 14.2047 22.0172 14.3088 22.0173 14.414H22.4789ZM21.4943 16.352C21.6236 16.3521 21.7517 16.3278 21.8712 16.2803C21.9908 16.2329 22.0994 16.1633 22.1908 16.0755C22.2823 15.9877 22.3548 15.8835 22.4042 15.7688C22.4537 15.6541 22.479 15.5311 22.4789 15.407H22.0163C22.0164 15.4728 22.0031 15.5379 21.977 15.5988C21.9508 15.6596 21.9125 15.7149 21.8641 15.7615C21.8158 15.8081 21.7583 15.8452 21.695 15.8705C21.6317 15.8958 21.5628 15.9088 21.4943 15.909V16.352ZM20.9733 16.796C20.9733 16.55 21.1796 16.352 21.4349 16.352V15.908C21.3134 15.908 21.1932 15.9309 21.081 15.9756C20.9688 16.0202 20.8669 16.0856 20.781 16.1681C20.6952 16.2506 20.6272 16.3485 20.5808 16.4562C20.5344 16.564 20.5106 16.6794 20.5107 16.796H20.9733ZM20.0481 17.683C20.5586 17.683 20.9733 17.286 20.9733 16.796H20.5107C20.5107 16.9137 20.462 17.0267 20.3752 17.1099C20.2885 17.1932 20.1708 17.24 20.0481 17.24V17.683ZM19.5272 18.14C19.5272 17.887 19.7407 17.683 20.0033 17.683V17.24C19.7546 17.24 19.5161 17.3348 19.3402 17.5036C19.1644 17.6724 19.0656 17.9013 19.0656 18.14H19.5272ZM18.5821 19.04C19.0979 19.04 19.5272 18.64 19.5272 18.14H19.0656C19.0656 18.39 18.8489 18.597 18.5821 18.597V19.04ZM18.0851 19.511C18.0851 19.255 18.3092 19.04 18.5821 19.04V18.597C18.329 18.597 18.0861 18.6931 17.9065 18.8643C17.7269 19.0355 17.6252 19.268 17.6236 19.511H18.0851ZM17.1162 20.515C17.3731 20.515 17.6196 20.417 17.8013 20.2426C17.9831 20.0682 18.0851 19.8316 18.0851 19.585H17.6236C17.6236 19.7141 17.5701 19.838 17.475 19.9293C17.3798 20.0207 17.2507 20.072 17.1162 20.072V20.515ZM16.6098 20.966C16.6098 20.8466 16.6592 20.7322 16.7471 20.6478C16.835 20.5634 16.9543 20.516 17.0786 20.516V20.072C16.565 20.072 16.1482 20.472 16.1482 20.966H16.6098ZM15.7585 21.86C15.9843 21.86 16.2008 21.7739 16.3605 21.6207C16.5201 21.4675 16.6098 21.2597 16.6098 21.043H16.1482C16.1482 21.1422 16.1072 21.2373 16.0341 21.3074C15.961 21.3776 15.8619 21.417 15.7585 21.417V21.86ZM15.3689 22.234C15.3689 22.027 15.5429 21.86 15.7585 21.86V21.417C15.5328 21.417 15.3163 21.503 15.1566 21.6563C14.997 21.8095 14.9073 22.0173 14.9073 22.234H15.3689ZM14.6249 23.194C15.0313 23.194 15.3689 22.879 15.3689 22.484H14.9073C14.9065 22.5552 14.8763 22.6233 14.8234 22.6733C14.7705 22.7233 14.6992 22.7512 14.6249 22.751V23.194ZM14.3499 23.459C14.3499 23.315 14.4749 23.194 14.6249 23.194V22.751C14.4296 22.7518 14.2426 22.8266 14.1046 22.9593C13.9666 23.0919 13.8888 23.2715 13.8883 23.459H14.3499ZM13.6268 24.157C13.8189 24.1559 14.0028 24.0819 14.1383 23.9511C14.2738 23.8203 14.3499 23.6434 14.3499 23.459H13.8883C13.8883 23.5259 13.8609 23.5902 13.812 23.6379C13.763 23.6856 13.6965 23.7129 13.6268 23.714V24.157ZM13.3653 24.284C13.3653 24.214 13.4246 24.157 13.4976 24.157V23.714C13.3401 23.714 13.189 23.774 13.0776 23.8809C12.9663 23.9878 12.9037 24.1328 12.9037 24.284H13.3653ZM12.7714 24.855C12.9289 24.855 13.0799 24.7939 13.1913 24.687C13.3027 24.5801 13.3653 24.4351 13.3653 24.284H12.9037C12.9037 24.354 12.8443 24.411 12.7714 24.411V24.855ZM12.5161 25.04C12.5161 24.938 12.6026 24.855 12.7099 24.855V24.411C12.6237 24.4108 12.5382 24.427 12.4585 24.4587C12.3788 24.4903 12.3064 24.5367 12.2454 24.5952C12.1845 24.6537 12.1361 24.7232 12.1032 24.7997C12.0702 24.8762 12.0533 24.9582 12.0535 25.041L12.5161 25.04ZM11.7586 25.917C11.9595 25.917 12.1522 25.8404 12.2942 25.704C12.4363 25.5677 12.5161 25.3828 12.5161 25.19H12.0545C12.0545 25.2653 12.0234 25.3375 11.9679 25.3908C11.9124 25.444 11.8371 25.474 11.7586 25.474V25.917ZM11.4627 26.027C11.4627 25.967 11.5159 25.917 11.5784 25.917V25.474C11.4256 25.4742 11.2782 25.5326 11.1702 25.6362C11.0622 25.7399 11.0014 25.8804 11.0012 26.027H11.4627ZM10.8865 26.581C11.0394 26.5807 11.186 26.5222 11.294 26.4184C11.402 26.3145 11.4627 26.1737 11.4627 26.027H11.0012C11.0012 26.0561 10.9891 26.0841 10.9676 26.1048C10.9461 26.1254 10.9169 26.137 10.8865 26.137V26.581ZM9.71126 25.74C9.71126 26.204 10.103 26.581 10.5865 26.581V26.138C10.4767 26.1377 10.3715 26.0957 10.2939 26.021C10.2164 25.9464 10.1718 25.8454 10.1718 25.74H9.71126ZM10.1968 24.876C10.068 24.876 9.94452 24.9251 9.85347 25.0125C9.76241 25.0999 9.71126 25.2184 9.71126 25.342H10.1718C10.1718 25.33 10.1832 25.319 10.1968 25.319V24.876ZM10.2208 24.853C10.2208 24.866 10.2103 24.876 10.1968 24.876V25.319C10.3256 25.319 10.4491 25.2699 10.5401 25.1825C10.6312 25.0951 10.6823 24.9776 10.6823 24.854L10.2208 24.853ZM10.6896 23.681C10.5653 23.681 10.446 23.7284 10.3581 23.8128C10.2702 23.8972 10.2208 24.0116 10.2208 24.131H10.6823C10.6823 24.127 10.6855 24.124 10.6886 24.124L10.6896 23.681ZM10.6969 23.674C10.6969 23.6758 10.6951 23.6776 10.6937 23.6789C10.6924 23.6802 10.6916 23.681 10.6896 23.681L10.6886 24.124C10.8129 24.124 10.9322 24.0766 11.0201 23.9922C11.108 23.9078 11.1574 23.7933 11.1574 23.674H10.6969ZM11.1981 22.452C11.132 22.452 11.0666 22.4645 11.0056 22.4888C10.9446 22.513 10.8892 22.5486 10.8426 22.5935C10.7959 22.6384 10.759 22.6916 10.7338 22.7502C10.7086 22.8088 10.6957 22.8716 10.6959 22.935L11.1574 22.934C11.1574 22.9234 11.1618 22.9142 11.1696 22.9067C11.1775 22.8992 11.1881 22.895 11.1991 22.895V22.452H11.1981ZM11.2397 22.413C11.2397 22.4236 11.2354 22.4338 11.2275 22.4413C11.2197 22.4488 11.2091 22.452 11.1981 22.452V22.896C11.2642 22.8961 11.3297 22.8837 11.3908 22.8595C11.4519 22.8352 11.5075 22.7997 11.5542 22.7548C11.601 22.7099 11.638 22.6566 11.6633 22.598C11.6885 22.5393 11.7015 22.4764 11.7013 22.413H11.2397ZM11.6398 20.731C11.5337 20.731 11.432 20.7714 11.3569 20.8434C11.2819 20.9155 11.2397 21.0131 11.2397 21.115H11.7013C11.7013 21.1306 11.6948 21.1456 11.6833 21.1567C11.6718 21.1678 11.6561 21.174 11.6398 21.174V20.731ZM11.5784 20.789C11.5789 20.7734 11.5857 20.7587 11.5974 20.7478C11.6091 20.737 11.6247 20.731 11.6409 20.731V21.174C11.6934 21.1738 11.7454 21.1638 11.7939 21.1444C11.8424 21.1249 11.8864 21.0965 11.9235 21.0608C11.9605 21.025 11.9899 20.9826 12.0099 20.936C12.0299 20.8894 12.0401 20.8394 12.0399 20.789H11.5784ZM12.0306 19.066C11.9108 19.066 11.796 19.1116 11.7112 19.1927C11.6264 19.2739 11.5786 19.385 11.5784 19.5L12.041 19.499C12.041 19.5016 12.0399 19.5042 12.0379 19.506C12.036 19.5079 12.0333 19.509 12.0306 19.509V19.066ZM12.0201 19.075C12.0201 19.0723 12.0212 19.0708 12.0232 19.0689C12.0252 19.067 12.0278 19.066 12.0306 19.066V19.509C12.2806 19.509 12.4817 19.315 12.4817 19.075H12.0201ZM12.6411 17.605C12.4764 17.605 12.3185 17.6678 12.202 17.7795C12.0856 17.8913 12.0201 18.0429 12.0201 18.201H12.4817C12.4817 18.117 12.5536 18.048 12.6411 18.048V17.605ZM12.8016 17.452C12.8017 17.4722 12.7977 17.4913 12.7896 17.5101C12.7816 17.5288 12.7698 17.5458 12.7549 17.5602C12.74 17.5745 12.7222 17.5858 12.7027 17.5935C12.6832 17.6012 12.6622 17.6051 12.6411 17.605V18.048C12.985 18.048 13.2632 17.78 13.2632 17.451L12.8016 17.452ZM12.3879 16.811C12.6161 16.811 12.8016 16.988 12.8016 17.208H13.2632C13.2632 16.9852 13.1709 16.7715 13.0068 16.614C12.8427 16.4565 12.6201 16.367 12.3879 16.367V16.811ZM9.57477 15.933C9.57477 16.418 9.98424 16.811 10.4896 16.811L10.4885 16.367C10.4291 16.3671 10.3712 16.356 10.3162 16.3342C10.2612 16.3125 10.2112 16.2805 10.1691 16.2402C10.127 16.1999 10.0936 16.152 10.0709 16.0993C10.0481 16.0466 10.0363 15.99 10.0363 15.933H9.57477ZM10.1291 15.056C10.0563 15.0558 9.98427 15.0695 9.91702 15.0961C9.84978 15.1227 9.78867 15.1618 9.73718 15.2111C9.6857 15.2605 9.64485 15.319 9.61698 15.3835C9.58911 15.448 9.57477 15.5182 9.57477 15.588L10.0363 15.587C10.0363 15.539 10.078 15.499 10.1291 15.499V15.056ZM10.2208 14.968C10.2208 15.017 10.1791 15.056 10.1291 15.056V15.499C10.2756 15.4987 10.4161 15.4426 10.5196 15.3431C10.6231 15.2435 10.6813 15.1086 10.6813 14.968H10.2208ZM10.9095 13.521C10.7267 13.5212 10.5515 13.5911 10.4224 13.7152C10.2933 13.8393 10.2208 14.0076 10.2208 14.183H10.6823C10.6823 14.062 10.7844 13.964 10.9095 13.964V13.521ZM11.1376 13.303C11.1376 13.3611 11.1136 13.4158 11.0708 13.4568C11.028 13.4979 10.97 13.521 10.9095 13.521V13.964C11 13.964 11.0897 13.9468 11.1734 13.9136C11.2571 13.8803 11.3331 13.8315 11.3972 13.7701C11.4612 13.7086 11.512 13.6356 11.5467 13.5553C11.5814 13.475 11.5992 13.3899 11.5992 13.303H11.1376ZM11.6899 12.127C11.5435 12.1272 11.4032 12.1832 11.2997 12.2825C11.1962 12.3818 11.1379 12.5165 11.1376 12.657H11.5992C11.5992 12.609 11.6409 12.57 11.6909 12.57V12.127H11.6899ZM11.7826 12.039C11.7826 12.087 11.7409 12.127 11.6909 12.127V12.57C11.7636 12.57 11.8355 12.5562 11.9026 12.5296C11.9697 12.5029 12.0307 12.4638 12.0821 12.4144C12.1335 12.3651 12.1742 12.3066 12.202 12.2422C12.2298 12.1778 12.2442 12.1087 12.2442 12.039H11.7826ZM12.4213 10.533C12.2521 10.533 12.0898 10.5974 11.97 10.7122C11.8503 10.8269 11.7829 10.9826 11.7826 11.145H12.2442C12.2442 11.0999 12.2628 11.0566 12.296 11.0248C12.3293 10.9929 12.3743 10.975 12.4213 10.975V10.533ZM12.5984 10.363C12.5984 10.4081 12.5797 10.4513 12.5465 10.4832C12.5133 10.5151 12.4683 10.533 12.4213 10.533V10.975C12.5905 10.9747 12.7527 10.911 12.8722 10.7961C12.9918 10.6811 13.0589 10.5244 13.0589 10.362L12.5984 10.363ZM13.1173 8.83897C12.9794 8.83897 12.8471 8.89154 12.7496 8.98513C12.6521 9.07871 12.5974 9.20563 12.5974 9.33797H13.0589C13.0589 9.30797 13.085 9.28297 13.1173 9.28297V8.83897ZM13.1746 8.78397C13.1746 8.81397 13.1485 8.83897 13.1173 8.83897V9.28297C13.1856 9.28284 13.2531 9.2698 13.3162 9.2446C13.3792 9.21941 13.4364 9.18254 13.4846 9.13611C13.5328 9.08968 13.571 9.0346 13.597 8.97401C13.623 8.91341 13.6363 8.8485 13.6362 8.78297H13.1746V8.78397ZM13.7112 7.27897C13.5689 7.27897 13.4324 7.33323 13.3318 7.42981C13.2311 7.52639 13.1746 7.65738 13.1746 7.79397H13.6362C13.6362 7.75397 13.6695 7.72197 13.7112 7.72197V7.27997V7.27897ZM13.7862 7.20697C13.7862 7.24697 13.7529 7.27897 13.7112 7.27897V7.72197C14.0071 7.72197 14.2478 7.49197 14.2478 7.20697H13.7862ZM14.0165 6.01697C13.8893 6.01697 13.7862 6.11697 13.7862 6.23897H14.2478C14.2478 6.36097 14.1436 6.45997 14.0165 6.45997V6.01697ZM13.7862 6.23897C13.7862 6.11597 13.8904 6.01697 14.0165 6.01697V6.45997C14.0468 6.4601 14.0768 6.45448 14.1049 6.44344C14.133 6.43239 14.1585 6.41613 14.18 6.3956C14.2014 6.37506 14.2185 6.35065 14.2301 6.32378C14.2418 6.2969 14.2478 6.26808 14.2478 6.23897H13.7862ZM14.4322 5.21997C14.2609 5.21997 14.0965 5.28529 13.9754 5.40156C13.8543 5.51784 13.7862 5.67554 13.7862 5.83997H14.2478C14.2478 5.74297 14.3311 5.66297 14.4322 5.66297V5.21997ZM20.5107 5.44197C20.5107 5.32397 20.6087 5.21997 20.741 5.21997V5.66297C20.8021 5.66297 20.8608 5.63972 20.9042 5.5983C20.9475 5.55689 20.972 5.50068 20.9723 5.44197H20.5107ZM20.741 5.21997C20.6139 5.21997 20.5107 5.31997 20.5107 5.44197H20.9723C20.9723 5.56397 20.8681 5.66297 20.741 5.66297V5.21997ZM21.9027 6.83197C21.9027 6.94177 21.8573 7.04707 21.7764 7.12471C21.6955 7.20235 21.5858 7.24597 21.4714 7.24597V7.68897C21.7082 7.68897 21.9353 7.59868 22.1028 7.43796C22.2702 7.27724 22.3643 7.05926 22.3643 6.83197H21.9027ZM22.3643 6.10997C22.3643 5.87393 22.2666 5.64755 22.0927 5.48065C21.9188 5.31374 21.6829 5.21997 21.437 5.21997V5.66297C21.6943 5.66297 21.9027 5.86297 21.9027 6.10997H22.3643Z" fill="#464953"/>
</g>
</svg>
